<mxfile host="Electron" modified="2024-01-12T16:31:41.946Z" agent="Mozilla/5.0 (X11; Linux x86_64) AppleWebKit/537.36 (KHTML, like Gecko) draw.io/22.1.2 Chrome/114.0.5735.289 Electron/25.9.4 Safari/537.36" etag="d3muDhoNJeiSW-OJzJ1j" version="22.1.2" type="device">
  <diagram id="6a731a19-8d31-9384-78a2-239565b7b9f0" name="Page-1">
    <mxGraphModel dx="1749" dy="812" grid="1" gridSize="10" guides="1" tooltips="1" connect="1" arrows="1" fold="1" page="1" pageScale="1" pageWidth="1169" pageHeight="827" background="none" math="0" shadow="0">
      <root>
        <mxCell id="0" />
        <mxCell id="1" parent="0" />
        <mxCell id="98QXRfcLhR_orF32b8Iy-1549" value="" style="rounded=0;whiteSpace=wrap;html=1;" vertex="1" parent="1">
          <mxGeometry x="80" y="40" width="1060" height="760" as="geometry" />
        </mxCell>
        <mxCell id="98QXRfcLhR_orF32b8Iy-1552" style="rounded=0;orthogonalLoop=1;jettySize=auto;html=1;exitX=0.5;exitY=0.5;exitDx=0;exitDy=0;exitPerimeter=0;entryX=0;entryY=0.5;entryDx=0;entryDy=0;" edge="1" parent="1" source="98QXRfcLhR_orF32b8Iy-1545" target="98QXRfcLhR_orF32b8Iy-1551">
          <mxGeometry relative="1" as="geometry" />
        </mxCell>
        <mxCell id="98QXRfcLhR_orF32b8Iy-1592" style="rounded=0;orthogonalLoop=1;jettySize=auto;html=1;exitX=0.5;exitY=0.5;exitDx=0;exitDy=0;exitPerimeter=0;entryX=0;entryY=0.75;entryDx=0;entryDy=0;" edge="1" parent="1" source="98QXRfcLhR_orF32b8Iy-1545" target="98QXRfcLhR_orF32b8Iy-1590">
          <mxGeometry relative="1" as="geometry" />
        </mxCell>
        <mxCell id="98QXRfcLhR_orF32b8Iy-1607" style="rounded=0;orthogonalLoop=1;jettySize=auto;html=1;exitX=0.5;exitY=0.5;exitDx=0;exitDy=0;exitPerimeter=0;entryX=0;entryY=0.75;entryDx=0;entryDy=0;" edge="1" parent="1" source="98QXRfcLhR_orF32b8Iy-1545" target="98QXRfcLhR_orF32b8Iy-1603">
          <mxGeometry relative="1" as="geometry" />
        </mxCell>
        <mxCell id="98QXRfcLhR_orF32b8Iy-1615" style="rounded=0;orthogonalLoop=1;jettySize=auto;html=1;exitX=0.5;exitY=0.5;exitDx=0;exitDy=0;exitPerimeter=0;entryX=0;entryY=0.5;entryDx=0;entryDy=0;" edge="1" parent="1" source="98QXRfcLhR_orF32b8Iy-1545" target="98QXRfcLhR_orF32b8Iy-1612">
          <mxGeometry relative="1" as="geometry" />
        </mxCell>
        <mxCell id="98QXRfcLhR_orF32b8Iy-1624" style="rounded=0;orthogonalLoop=1;jettySize=auto;html=1;exitX=0.5;exitY=0.5;exitDx=0;exitDy=0;exitPerimeter=0;entryX=0;entryY=0.5;entryDx=0;entryDy=0;" edge="1" parent="1" source="98QXRfcLhR_orF32b8Iy-1545" target="98QXRfcLhR_orF32b8Iy-1623">
          <mxGeometry relative="1" as="geometry" />
        </mxCell>
        <mxCell id="98QXRfcLhR_orF32b8Iy-1545" value="Student" style="shape=umlActor;verticalLabelPosition=bottom;verticalAlign=top;html=1;outlineConnect=0;" vertex="1" parent="1">
          <mxGeometry x="20" y="60" width="30" height="60" as="geometry" />
        </mxCell>
        <mxCell id="98QXRfcLhR_orF32b8Iy-1553" style="rounded=0;orthogonalLoop=1;jettySize=auto;html=1;exitX=0.5;exitY=0.5;exitDx=0;exitDy=0;exitPerimeter=0;entryX=0;entryY=0.5;entryDx=0;entryDy=0;" edge="1" parent="1" source="98QXRfcLhR_orF32b8Iy-1547" target="98QXRfcLhR_orF32b8Iy-1551">
          <mxGeometry relative="1" as="geometry">
            <mxPoint x="160" y="380" as="targetPoint" />
          </mxGeometry>
        </mxCell>
        <mxCell id="98QXRfcLhR_orF32b8Iy-1593" style="rounded=0;orthogonalLoop=1;jettySize=auto;html=1;exitX=0.5;exitY=0.5;exitDx=0;exitDy=0;exitPerimeter=0;entryX=0;entryY=0.75;entryDx=0;entryDy=0;" edge="1" parent="1" source="98QXRfcLhR_orF32b8Iy-1547" target="98QXRfcLhR_orF32b8Iy-1591">
          <mxGeometry relative="1" as="geometry" />
        </mxCell>
        <mxCell id="98QXRfcLhR_orF32b8Iy-1604" style="rounded=0;orthogonalLoop=1;jettySize=auto;html=1;exitX=0.5;exitY=0.5;exitDx=0;exitDy=0;exitPerimeter=0;entryX=0;entryY=0.5;entryDx=0;entryDy=0;" edge="1" parent="1" source="98QXRfcLhR_orF32b8Iy-1547" target="98QXRfcLhR_orF32b8Iy-1581">
          <mxGeometry relative="1" as="geometry" />
        </mxCell>
        <mxCell id="98QXRfcLhR_orF32b8Iy-1616" style="rounded=0;orthogonalLoop=1;jettySize=auto;html=1;exitX=0.5;exitY=0.5;exitDx=0;exitDy=0;exitPerimeter=0;entryX=0;entryY=0.5;entryDx=0;entryDy=0;" edge="1" parent="1" source="98QXRfcLhR_orF32b8Iy-1547" target="98QXRfcLhR_orF32b8Iy-1612">
          <mxGeometry relative="1" as="geometry" />
        </mxCell>
        <mxCell id="98QXRfcLhR_orF32b8Iy-1625" style="rounded=0;orthogonalLoop=1;jettySize=auto;html=1;exitX=0.5;exitY=0.5;exitDx=0;exitDy=0;exitPerimeter=0;entryX=0;entryY=0.5;entryDx=0;entryDy=0;" edge="1" parent="1" source="98QXRfcLhR_orF32b8Iy-1547" target="98QXRfcLhR_orF32b8Iy-1623">
          <mxGeometry relative="1" as="geometry" />
        </mxCell>
        <mxCell id="98QXRfcLhR_orF32b8Iy-1547" value="Teacher" style="shape=umlActor;verticalLabelPosition=bottom;verticalAlign=top;html=1;outlineConnect=0;" vertex="1" parent="1">
          <mxGeometry x="20" y="660" width="30" height="60" as="geometry" />
        </mxCell>
        <mxCell id="98QXRfcLhR_orF32b8Iy-1554" style="rounded=0;orthogonalLoop=1;jettySize=auto;html=1;exitX=0.5;exitY=0.5;exitDx=0;exitDy=0;exitPerimeter=0;entryX=0;entryY=0.5;entryDx=0;entryDy=0;" edge="1" parent="1" source="98QXRfcLhR_orF32b8Iy-1548" target="98QXRfcLhR_orF32b8Iy-1551">
          <mxGeometry relative="1" as="geometry" />
        </mxCell>
        <mxCell id="98QXRfcLhR_orF32b8Iy-1609" style="rounded=0;orthogonalLoop=1;jettySize=auto;html=1;exitX=0.5;exitY=0.5;exitDx=0;exitDy=0;exitPerimeter=0;entryX=0;entryY=0.5;entryDx=0;entryDy=0;" edge="1" parent="1" source="98QXRfcLhR_orF32b8Iy-1548" target="98QXRfcLhR_orF32b8Iy-1608">
          <mxGeometry relative="1" as="geometry" />
        </mxCell>
        <mxCell id="98QXRfcLhR_orF32b8Iy-1626" style="rounded=0;orthogonalLoop=1;jettySize=auto;html=1;exitX=0.5;exitY=0.5;exitDx=0;exitDy=0;exitPerimeter=0;entryX=0;entryY=0.5;entryDx=0;entryDy=0;" edge="1" parent="1" source="98QXRfcLhR_orF32b8Iy-1548" target="98QXRfcLhR_orF32b8Iy-1623">
          <mxGeometry relative="1" as="geometry" />
        </mxCell>
        <mxCell id="98QXRfcLhR_orF32b8Iy-1636" style="rounded=0;orthogonalLoop=1;jettySize=auto;html=1;exitX=0.5;exitY=0.5;exitDx=0;exitDy=0;exitPerimeter=0;entryX=0;entryY=0.5;entryDx=0;entryDy=0;" edge="1" parent="1" source="98QXRfcLhR_orF32b8Iy-1548" target="98QXRfcLhR_orF32b8Iy-1564">
          <mxGeometry relative="1" as="geometry" />
        </mxCell>
        <mxCell id="98QXRfcLhR_orF32b8Iy-1548" value="Manager" style="shape=umlActor;verticalLabelPosition=bottom;verticalAlign=top;html=1;outlineConnect=0;" vertex="1" parent="1">
          <mxGeometry x="20" y="370" width="30" height="60" as="geometry" />
        </mxCell>
        <mxCell id="98QXRfcLhR_orF32b8Iy-1550" value="&lt;font style=&quot;font-size: 24px;&quot;&gt;&lt;b&gt;System&lt;/b&gt;&lt;/font&gt;" style="text;html=1;strokeColor=none;fillColor=none;align=center;verticalAlign=middle;whiteSpace=wrap;rounded=0;" vertex="1" parent="1">
          <mxGeometry x="80" y="10" width="90" height="30" as="geometry" />
        </mxCell>
        <mxCell id="98QXRfcLhR_orF32b8Iy-1556" style="edgeStyle=orthogonalEdgeStyle;rounded=0;orthogonalLoop=1;jettySize=auto;html=1;exitX=1;exitY=0.5;exitDx=0;exitDy=0;entryX=0.5;entryY=1;entryDx=0;entryDy=0;" edge="1" parent="1" source="98QXRfcLhR_orF32b8Iy-1551" target="98QXRfcLhR_orF32b8Iy-1555">
          <mxGeometry relative="1" as="geometry">
            <mxPoint x="1040" y="280" as="targetPoint" />
            <Array as="points">
              <mxPoint x="1060" y="640" />
            </Array>
          </mxGeometry>
        </mxCell>
        <mxCell id="98QXRfcLhR_orF32b8Iy-1574" style="edgeStyle=orthogonalEdgeStyle;rounded=0;orthogonalLoop=1;jettySize=auto;html=1;exitX=0.5;exitY=1;exitDx=0;exitDy=0;entryX=0;entryY=0.5;entryDx=0;entryDy=0;" edge="1" parent="1" source="98QXRfcLhR_orF32b8Iy-1551" target="98QXRfcLhR_orF32b8Iy-1563">
          <mxGeometry relative="1" as="geometry" />
        </mxCell>
        <mxCell id="98QXRfcLhR_orF32b8Iy-1575" style="edgeStyle=orthogonalEdgeStyle;rounded=0;orthogonalLoop=1;jettySize=auto;html=1;entryX=0;entryY=0.5;entryDx=0;entryDy=0;exitX=0.5;exitY=1;exitDx=0;exitDy=0;" edge="1" parent="1" source="98QXRfcLhR_orF32b8Iy-1551" target="98QXRfcLhR_orF32b8Iy-1562">
          <mxGeometry relative="1" as="geometry" />
        </mxCell>
        <mxCell id="98QXRfcLhR_orF32b8Iy-1576" style="edgeStyle=orthogonalEdgeStyle;rounded=0;orthogonalLoop=1;jettySize=auto;html=1;exitX=0.5;exitY=1;exitDx=0;exitDy=0;entryX=0;entryY=0.5;entryDx=0;entryDy=0;" edge="1" parent="1" source="98QXRfcLhR_orF32b8Iy-1551" target="98QXRfcLhR_orF32b8Iy-1559">
          <mxGeometry relative="1" as="geometry" />
        </mxCell>
        <mxCell id="98QXRfcLhR_orF32b8Iy-1589" style="edgeStyle=orthogonalEdgeStyle;rounded=0;orthogonalLoop=1;jettySize=auto;html=1;exitX=1;exitY=0.5;exitDx=0;exitDy=0;entryX=0.5;entryY=1;entryDx=0;entryDy=0;" edge="1" parent="1" source="98QXRfcLhR_orF32b8Iy-1551" target="98QXRfcLhR_orF32b8Iy-1583">
          <mxGeometry relative="1" as="geometry" />
        </mxCell>
        <mxCell id="98QXRfcLhR_orF32b8Iy-1551" value="Đăng Nhập và Quản Lý Tài Khoản" style="rounded=0;whiteSpace=wrap;html=1;" vertex="1" parent="1">
          <mxGeometry x="170" y="610" width="120" height="60" as="geometry" />
        </mxCell>
        <mxCell id="98QXRfcLhR_orF32b8Iy-1555" value="CRUD with DB" style="rounded=0;whiteSpace=wrap;html=1;" vertex="1" parent="1">
          <mxGeometry x="1000" y="50" width="120" height="60" as="geometry" />
        </mxCell>
        <mxCell id="98QXRfcLhR_orF32b8Iy-1557" value="Generalization" style="text;html=1;strokeColor=none;fillColor=none;align=center;verticalAlign=middle;whiteSpace=wrap;rounded=0;" vertex="1" parent="1">
          <mxGeometry x="310" y="50" width="90" height="30" as="geometry" />
        </mxCell>
        <mxCell id="98QXRfcLhR_orF32b8Iy-1570" style="edgeStyle=orthogonalEdgeStyle;rounded=0;orthogonalLoop=1;jettySize=auto;html=1;exitX=1;exitY=0.5;exitDx=0;exitDy=0;entryX=0.5;entryY=1;entryDx=0;entryDy=0;" edge="1" parent="1" source="98QXRfcLhR_orF32b8Iy-1559" target="98QXRfcLhR_orF32b8Iy-1555">
          <mxGeometry relative="1" as="geometry">
            <mxPoint x="1040" y="280" as="targetPoint" />
            <Array as="points">
              <mxPoint x="1060" y="775" />
            </Array>
          </mxGeometry>
        </mxCell>
        <mxCell id="98QXRfcLhR_orF32b8Iy-1559" value="Login&amp;nbsp;" style="rounded=1;whiteSpace=wrap;html=1;" vertex="1" parent="1">
          <mxGeometry x="400" y="760" width="60" height="30" as="geometry" />
        </mxCell>
        <mxCell id="98QXRfcLhR_orF32b8Iy-1569" style="edgeStyle=orthogonalEdgeStyle;rounded=0;orthogonalLoop=1;jettySize=auto;html=1;entryX=0.5;entryY=1;entryDx=0;entryDy=0;" edge="1" parent="1" source="98QXRfcLhR_orF32b8Iy-1562" target="98QXRfcLhR_orF32b8Iy-1555">
          <mxGeometry relative="1" as="geometry">
            <Array as="points">
              <mxPoint x="1060" y="735" />
            </Array>
          </mxGeometry>
        </mxCell>
        <mxCell id="98QXRfcLhR_orF32b8Iy-1562" value="Logout" style="rounded=1;whiteSpace=wrap;html=1;" vertex="1" parent="1">
          <mxGeometry x="400" y="720" width="60" height="30" as="geometry" />
        </mxCell>
        <mxCell id="98QXRfcLhR_orF32b8Iy-1565" style="edgeStyle=orthogonalEdgeStyle;rounded=0;orthogonalLoop=1;jettySize=auto;html=1;" edge="1" parent="1" source="98QXRfcLhR_orF32b8Iy-1563" target="98QXRfcLhR_orF32b8Iy-1564">
          <mxGeometry relative="1" as="geometry" />
        </mxCell>
        <mxCell id="98QXRfcLhR_orF32b8Iy-1566" style="edgeStyle=orthogonalEdgeStyle;rounded=0;orthogonalLoop=1;jettySize=auto;html=1;exitX=1;exitY=0.5;exitDx=0;exitDy=0;entryX=0.5;entryY=1;entryDx=0;entryDy=0;" edge="1" parent="1" source="98QXRfcLhR_orF32b8Iy-1563" target="98QXRfcLhR_orF32b8Iy-1555">
          <mxGeometry relative="1" as="geometry">
            <Array as="points">
              <mxPoint x="1060" y="690" />
            </Array>
          </mxGeometry>
        </mxCell>
        <mxCell id="98QXRfcLhR_orF32b8Iy-1563" value="Forgot Password" style="rounded=1;whiteSpace=wrap;html=1;" vertex="1" parent="1">
          <mxGeometry x="400" y="675" width="60" height="30" as="geometry" />
        </mxCell>
        <mxCell id="98QXRfcLhR_orF32b8Iy-1564" value="Quản lý kiểm tra yêu càu thay đổi, yêu cầu hành chính, ..." style="rounded=0;whiteSpace=wrap;html=1;" vertex="1" parent="1">
          <mxGeometry x="900" y="555" width="120" height="60" as="geometry" />
        </mxCell>
        <mxCell id="98QXRfcLhR_orF32b8Iy-1567" value="Generalization" style="text;html=1;strokeColor=none;fillColor=none;align=center;verticalAlign=middle;whiteSpace=wrap;rounded=0;" vertex="1" parent="1">
          <mxGeometry x="970" y="660" width="90" height="30" as="geometry" />
        </mxCell>
        <mxCell id="98QXRfcLhR_orF32b8Iy-1571" value="Generalization" style="text;html=1;strokeColor=none;fillColor=none;align=center;verticalAlign=middle;whiteSpace=wrap;rounded=0;" vertex="1" parent="1">
          <mxGeometry x="970" y="705" width="90" height="30" as="geometry" />
        </mxCell>
        <mxCell id="98QXRfcLhR_orF32b8Iy-1572" value="Generalization" style="text;html=1;strokeColor=none;fillColor=none;align=center;verticalAlign=middle;whiteSpace=wrap;rounded=0;" vertex="1" parent="1">
          <mxGeometry x="970" y="750" width="90" height="30" as="geometry" />
        </mxCell>
        <mxCell id="98QXRfcLhR_orF32b8Iy-1573" value="Include" style="text;html=1;strokeColor=none;fillColor=none;align=center;verticalAlign=middle;whiteSpace=wrap;rounded=0;" vertex="1" parent="1">
          <mxGeometry x="880" y="650" width="90" height="30" as="geometry" />
        </mxCell>
        <mxCell id="98QXRfcLhR_orF32b8Iy-1577" value="Include" style="text;html=1;strokeColor=none;fillColor=none;align=center;verticalAlign=middle;whiteSpace=wrap;rounded=0;" vertex="1" parent="1">
          <mxGeometry x="290" y="660" width="90" height="30" as="geometry" />
        </mxCell>
        <mxCell id="98QXRfcLhR_orF32b8Iy-1578" value="Include" style="text;html=1;strokeColor=none;fillColor=none;align=center;verticalAlign=middle;whiteSpace=wrap;rounded=0;" vertex="1" parent="1">
          <mxGeometry x="290" y="705" width="90" height="30" as="geometry" />
        </mxCell>
        <mxCell id="98QXRfcLhR_orF32b8Iy-1579" value="Include" style="text;html=1;strokeColor=none;fillColor=none;align=center;verticalAlign=middle;whiteSpace=wrap;rounded=0;" vertex="1" parent="1">
          <mxGeometry x="290" y="740" width="90" height="30" as="geometry" />
        </mxCell>
        <mxCell id="98QXRfcLhR_orF32b8Iy-1605" style="edgeStyle=orthogonalEdgeStyle;rounded=0;orthogonalLoop=1;jettySize=auto;html=1;entryX=0.5;entryY=1;entryDx=0;entryDy=0;" edge="1" parent="1" source="98QXRfcLhR_orF32b8Iy-1581" target="98QXRfcLhR_orF32b8Iy-1603">
          <mxGeometry relative="1" as="geometry" />
        </mxCell>
        <mxCell id="98QXRfcLhR_orF32b8Iy-1581" value="Xem và Cập Nhật Điểm" style="rounded=0;whiteSpace=wrap;html=1;" vertex="1" parent="1">
          <mxGeometry x="170" y="530" width="120" height="60" as="geometry" />
        </mxCell>
        <mxCell id="98QXRfcLhR_orF32b8Iy-1594" style="edgeStyle=orthogonalEdgeStyle;rounded=0;orthogonalLoop=1;jettySize=auto;html=1;exitX=0.5;exitY=0;exitDx=0;exitDy=0;entryX=0.5;entryY=1;entryDx=0;entryDy=0;" edge="1" parent="1" source="98QXRfcLhR_orF32b8Iy-1582" target="98QXRfcLhR_orF32b8Iy-1590">
          <mxGeometry relative="1" as="geometry" />
        </mxCell>
        <mxCell id="98QXRfcLhR_orF32b8Iy-1595" style="edgeStyle=orthogonalEdgeStyle;rounded=0;orthogonalLoop=1;jettySize=auto;html=1;exitX=0.5;exitY=1;exitDx=0;exitDy=0;" edge="1" parent="1" source="98QXRfcLhR_orF32b8Iy-1582" target="98QXRfcLhR_orF32b8Iy-1591">
          <mxGeometry relative="1" as="geometry" />
        </mxCell>
        <mxCell id="98QXRfcLhR_orF32b8Iy-1582" value="Quản Lý Đăng Ký Học" style="rounded=0;whiteSpace=wrap;html=1;" vertex="1" parent="1">
          <mxGeometry x="190" y="180" width="120" height="60" as="geometry" />
        </mxCell>
        <mxCell id="98QXRfcLhR_orF32b8Iy-1587" style="edgeStyle=orthogonalEdgeStyle;rounded=0;orthogonalLoop=1;jettySize=auto;html=1;exitX=1;exitY=0.5;exitDx=0;exitDy=0;entryX=0;entryY=0.5;entryDx=0;entryDy=0;" edge="1" parent="1" source="98QXRfcLhR_orF32b8Iy-1583" target="98QXRfcLhR_orF32b8Iy-1564">
          <mxGeometry relative="1" as="geometry" />
        </mxCell>
        <mxCell id="98QXRfcLhR_orF32b8Iy-1583" value="Change Info" style="rounded=1;whiteSpace=wrap;html=1;" vertex="1" parent="1">
          <mxGeometry x="420" y="570" width="60" height="30" as="geometry" />
        </mxCell>
        <mxCell id="98QXRfcLhR_orF32b8Iy-1586" value="Include" style="text;html=1;strokeColor=none;fillColor=none;align=center;verticalAlign=middle;whiteSpace=wrap;rounded=0;" vertex="1" parent="1">
          <mxGeometry x="380" y="600" width="90" height="30" as="geometry" />
        </mxCell>
        <mxCell id="98QXRfcLhR_orF32b8Iy-1588" value="Extend" style="text;html=1;strokeColor=none;fillColor=none;align=center;verticalAlign=middle;whiteSpace=wrap;rounded=0;" vertex="1" parent="1">
          <mxGeometry x="470" y="560" width="90" height="30" as="geometry" />
        </mxCell>
        <mxCell id="98QXRfcLhR_orF32b8Iy-1599" style="edgeStyle=orthogonalEdgeStyle;rounded=0;orthogonalLoop=1;jettySize=auto;html=1;exitX=1;exitY=0.5;exitDx=0;exitDy=0;entryX=0;entryY=0.5;entryDx=0;entryDy=0;" edge="1" parent="1" source="98QXRfcLhR_orF32b8Iy-1590" target="98QXRfcLhR_orF32b8Iy-1555">
          <mxGeometry relative="1" as="geometry" />
        </mxCell>
        <mxCell id="98QXRfcLhR_orF32b8Iy-1590" value="DangKyHoc và Xem lịch học" style="rounded=1;whiteSpace=wrap;html=1;" vertex="1" parent="1">
          <mxGeometry x="190" y="65" width="120" height="30" as="geometry" />
        </mxCell>
        <mxCell id="98QXRfcLhR_orF32b8Iy-1600" style="edgeStyle=orthogonalEdgeStyle;rounded=0;orthogonalLoop=1;jettySize=auto;html=1;entryX=0.5;entryY=1;entryDx=0;entryDy=0;" edge="1" parent="1" source="98QXRfcLhR_orF32b8Iy-1591" target="98QXRfcLhR_orF32b8Iy-1555">
          <mxGeometry relative="1" as="geometry" />
        </mxCell>
        <mxCell id="98QXRfcLhR_orF32b8Iy-1591" value="Xem danh sách sinh viên của lớp mình dạy" style="rounded=1;whiteSpace=wrap;html=1;" vertex="1" parent="1">
          <mxGeometry x="190" y="280" width="120" height="30" as="geometry" />
        </mxCell>
        <mxCell id="98QXRfcLhR_orF32b8Iy-1596" value="Include" style="text;html=1;strokeColor=none;fillColor=none;align=center;verticalAlign=middle;whiteSpace=wrap;rounded=0;" vertex="1" parent="1">
          <mxGeometry x="205" y="100" width="90" height="30" as="geometry" />
        </mxCell>
        <mxCell id="98QXRfcLhR_orF32b8Iy-1597" value="Include" style="text;html=1;strokeColor=none;fillColor=none;align=center;verticalAlign=middle;whiteSpace=wrap;rounded=0;" vertex="1" parent="1">
          <mxGeometry x="205" y="245" width="90" height="30" as="geometry" />
        </mxCell>
        <mxCell id="98QXRfcLhR_orF32b8Iy-1601" value="Generalization" style="text;html=1;strokeColor=none;fillColor=none;align=center;verticalAlign=middle;whiteSpace=wrap;rounded=0;" vertex="1" parent="1">
          <mxGeometry x="970" y="610" width="90" height="30" as="geometry" />
        </mxCell>
        <mxCell id="98QXRfcLhR_orF32b8Iy-1602" value="Generalization" style="text;html=1;strokeColor=none;fillColor=none;align=center;verticalAlign=middle;whiteSpace=wrap;rounded=0;" vertex="1" parent="1">
          <mxGeometry x="310" y="340" width="90" height="30" as="geometry" />
        </mxCell>
        <mxCell id="98QXRfcLhR_orF32b8Iy-1603" value="Xem điểm" style="rounded=1;whiteSpace=wrap;html=1;" vertex="1" parent="1">
          <mxGeometry x="200" y="470" width="60" height="30" as="geometry" />
        </mxCell>
        <mxCell id="98QXRfcLhR_orF32b8Iy-1606" value="Include" style="text;html=1;strokeColor=none;fillColor=none;align=center;verticalAlign=middle;whiteSpace=wrap;rounded=0;" vertex="1" parent="1">
          <mxGeometry x="220" y="500" width="90" height="30" as="geometry" />
        </mxCell>
        <mxCell id="98QXRfcLhR_orF32b8Iy-1610" style="edgeStyle=orthogonalEdgeStyle;rounded=0;orthogonalLoop=1;jettySize=auto;html=1;entryX=0.5;entryY=1;entryDx=0;entryDy=0;exitX=1;exitY=0.5;exitDx=0;exitDy=0;" edge="1" parent="1" source="98QXRfcLhR_orF32b8Iy-1608" target="98QXRfcLhR_orF32b8Iy-1555">
          <mxGeometry relative="1" as="geometry">
            <Array as="points">
              <mxPoint x="1060" y="410" />
            </Array>
          </mxGeometry>
        </mxCell>
        <mxCell id="98QXRfcLhR_orF32b8Iy-1614" style="edgeStyle=orthogonalEdgeStyle;rounded=0;orthogonalLoop=1;jettySize=auto;html=1;entryX=0.5;entryY=1;entryDx=0;entryDy=0;" edge="1" parent="1" source="98QXRfcLhR_orF32b8Iy-1608" target="98QXRfcLhR_orF32b8Iy-1612">
          <mxGeometry relative="1" as="geometry" />
        </mxCell>
        <mxCell id="98QXRfcLhR_orF32b8Iy-1608" value="Thêm, sửa, xoá thông tin giảng viên, sinh viên, phòng học, môn học, học phần&lt;br role=&quot;presentation&quot;&gt;&lt;span dir=&quot;ltr&quot; role=&quot;presentation&quot; style=&quot;left: 120.775px; top: 270.958px; font-size: 13.2445px; font-family: sans-serif; transform: scaleX(0.963561);&quot;&gt;các chương trình học hiện có,&amp;nbsp;thông tin cá nhân của tài khoản,&lt;br&gt;&amp;nbsp;thông tin học kỳ, năm học.&lt;br&gt;Xem, xếp lịch học, lịch thi.&lt;br&gt;&lt;/span&gt;" style="rounded=0;whiteSpace=wrap;html=1;" vertex="1" parent="1">
          <mxGeometry x="500" y="340" width="275" height="140" as="geometry" />
        </mxCell>
        <mxCell id="98QXRfcLhR_orF32b8Iy-1611" value="Generalization" style="text;html=1;strokeColor=none;fillColor=none;align=center;verticalAlign=middle;whiteSpace=wrap;rounded=0;" vertex="1" parent="1">
          <mxGeometry x="970" y="380" width="90" height="30" as="geometry" />
        </mxCell>
        <mxCell id="98QXRfcLhR_orF32b8Iy-1620" style="edgeStyle=orthogonalEdgeStyle;rounded=0;orthogonalLoop=1;jettySize=auto;html=1;exitX=0.5;exitY=0;exitDx=0;exitDy=0;entryX=0;entryY=0.5;entryDx=0;entryDy=0;" edge="1" parent="1" source="98QXRfcLhR_orF32b8Iy-1612" target="98QXRfcLhR_orF32b8Iy-1555">
          <mxGeometry relative="1" as="geometry" />
        </mxCell>
        <mxCell id="98QXRfcLhR_orF32b8Iy-1612" value="Xem lịch học TKB, lịch thi, các môn học, các học phần, thông tin cá nhân của tài khoản, các chương trình học" style="rounded=0;whiteSpace=wrap;html=1;" vertex="1" parent="1">
          <mxGeometry x="552.5" y="170" width="170" height="75" as="geometry" />
        </mxCell>
        <mxCell id="98QXRfcLhR_orF32b8Iy-1617" value="Include" style="text;html=1;strokeColor=none;fillColor=none;align=center;verticalAlign=middle;whiteSpace=wrap;rounded=0;" vertex="1" parent="1">
          <mxGeometry x="592.5" y="310" width="90" height="30" as="geometry" />
        </mxCell>
        <mxCell id="98QXRfcLhR_orF32b8Iy-1621" value="Generalization" style="text;html=1;strokeColor=none;fillColor=none;align=center;verticalAlign=middle;whiteSpace=wrap;rounded=0;" vertex="1" parent="1">
          <mxGeometry x="592.5" y="110" width="90" height="30" as="geometry" />
        </mxCell>
        <mxCell id="98QXRfcLhR_orF32b8Iy-1627" style="edgeStyle=orthogonalEdgeStyle;rounded=0;orthogonalLoop=1;jettySize=auto;html=1;entryX=0;entryY=0.5;entryDx=0;entryDy=0;exitX=0.5;exitY=0;exitDx=0;exitDy=0;" edge="1" parent="1" source="98QXRfcLhR_orF32b8Iy-1623" target="98QXRfcLhR_orF32b8Iy-1555">
          <mxGeometry relative="1" as="geometry" />
        </mxCell>
        <mxCell id="98QXRfcLhR_orF32b8Iy-1634" style="edgeStyle=orthogonalEdgeStyle;rounded=0;orthogonalLoop=1;jettySize=auto;html=1;entryX=0.5;entryY=0;entryDx=0;entryDy=0;" edge="1" parent="1" source="98QXRfcLhR_orF32b8Iy-1623" target="98QXRfcLhR_orF32b8Iy-1633">
          <mxGeometry relative="1" as="geometry" />
        </mxCell>
        <mxCell id="98QXRfcLhR_orF32b8Iy-1623" value="Thông tin hướng dẫn, hỗ trợ. Các biểu mẫu yêu cầu" style="rounded=0;whiteSpace=wrap;html=1;" vertex="1" parent="1">
          <mxGeometry x="870" y="200" width="120" height="60" as="geometry" />
        </mxCell>
        <mxCell id="98QXRfcLhR_orF32b8Iy-1628" value="Generalization" style="text;html=1;strokeColor=none;fillColor=none;align=center;verticalAlign=middle;whiteSpace=wrap;rounded=0;" vertex="1" parent="1">
          <mxGeometry x="880" y="95" width="90" height="30" as="geometry" />
        </mxCell>
        <mxCell id="98QXRfcLhR_orF32b8Iy-1637" style="edgeStyle=orthogonalEdgeStyle;rounded=0;orthogonalLoop=1;jettySize=auto;html=1;entryX=0.5;entryY=0;entryDx=0;entryDy=0;" edge="1" parent="1" source="98QXRfcLhR_orF32b8Iy-1633" target="98QXRfcLhR_orF32b8Iy-1564">
          <mxGeometry relative="1" as="geometry" />
        </mxCell>
        <mxCell id="98QXRfcLhR_orF32b8Iy-1633" value="Yêu cầu dịch vụ thủ tục hành chính trực tuyến" style="rounded=1;whiteSpace=wrap;html=1;" vertex="1" parent="1">
          <mxGeometry x="865" y="330" width="130" height="40" as="geometry" />
        </mxCell>
        <mxCell id="98QXRfcLhR_orF32b8Iy-1635" value="Extend" style="text;html=1;strokeColor=none;fillColor=none;align=center;verticalAlign=middle;whiteSpace=wrap;rounded=0;" vertex="1" parent="1">
          <mxGeometry x="885" y="260" width="90" height="30" as="geometry" />
        </mxCell>
        <mxCell id="98QXRfcLhR_orF32b8Iy-1638" value="Include" style="text;html=1;strokeColor=none;fillColor=none;align=center;verticalAlign=middle;whiteSpace=wrap;rounded=0;" vertex="1" parent="1">
          <mxGeometry x="915" y="490" width="90" height="30" as="geometry" />
        </mxCell>
      </root>
    </mxGraphModel>
  </diagram>
</mxfile>
